<svg xmlns="http://www.w3.org/2000/svg"  viewBox="0 0 64 64"><defs fill="#D87620" /><path  d="m21,23c-3.92,0-7.24,2.51-8.48,6h-4.52v6h4.52c1.24,3.49,4.56,6,8.48,6s7.24-2.51,8.48-6h26.52v-6h-26.52c-1.24-3.49-4.56-6-8.48-6Zm0,12c-1.66,0-3-1.34-3-3s1.34-3,3-3,3,1.34,3,3-1.34,3-3,3Zm14,6c-3.92,0-7.24,2.51-8.48,6H8v6h18.52c1.24,3.49,4.56,6,8.48,6s7.24-2.51,8.48-6h12.52v-6h-12.52c-1.24-3.49-4.56-6-8.48-6Zm0,12c-1.66,0-3-1.34-3-3s1.34-3,3-3,3,1.34,3,3-1.34,3-3,3ZM51.48,11c-1.24-3.49-4.56-6-8.48-6s-7.24,2.51-8.48,6H8v6h26.52c1.24,3.49,4.56,6,8.48,6s7.24-2.51,8.48-6h4.52v-6h-4.52Zm-8.48,6c-1.66,0-3-1.34-3-3s1.34-3,3-3,3,1.34,3,3-1.34,3-3,3Z" fill="#D87620" /></svg>